<svg id="Layer_1" data-name="Layer 1" xmlns="http://www.w3.org/2000/svg" viewBox="0 0 441.19 193.42">
<defs>
<style>.cls-1{fill:#f3edea;}</style>
</defs>
<title>Nagrand logo cream</title>
<g id="Group_57" data-name="Group 57">
<g id="Group_1" data-name="Group 1">
<path id="Path_1" 
data-name="Path 1" 
class="cls-1" 
d="M474.69,370.15v42.1h-4.25V366.34a8.34,8.34,0,0,0-1.75-5.63c-1.16-1.36-3.14-2-5.91-2h-.42v-2.55h5.95a20.81,20.81,0,0,1,7.78,1.23,12.18,12.18,0,0,1,5.06,3.86l29.25,34V356.13h4.25V412.5h-3.9Z" transform="translate(-462.36 -287.06)"/><path id="Path_2" data-name="Path 2" class="cls-1" d="M571.46,410.33q-4.35-2.25-7.06-8.8l-1.95-4.75H539.83l-7,15.48h-4.42l25.09-56.13h3.82l19,45.4q3.23,7.92,8.84,8.52v2.12a15.47,15.47,0,0,1-4.07.42A20.56,20.56,0,0,1,571.46,410.33Zm-29.85-17.39h19.22l-9.35-22.18Z" transform="translate(-462.36 -287.06)"/><path id="Path_3" data-name="Path 3" class="cls-1" d="M606,409.91a28.71,28.71,0,0,1-11-11.06,32.64,32.64,0,0,1-.46-30.28,25.77,25.77,0,0,1,9.9-10.36,28.36,28.36,0,0,1,14.67-3.79,37.07,37.07,0,0,1,12.75,1.95,18.86,18.86,0,0,1,7.83,4.93,10,10,0,0,1,1.82,4.77,52,52,0,0,1,.39,7.06h-2.55q-1.6-7.74-5.92-11.3t-11.78-3.58q-9.51,0-14.1,7.14T603,383.33q0,14.55,5.06,20.89a16.55,16.55,0,0,0,13.64,6.33,27.65,27.65,0,0,0,11.49-2.21V393.21a9.42,9.42,0,0,1,3.4-7.45q3.4-2.92,13.1-2.93V385q-5.44,0-5.45,8.08v15.22a35.77,35.77,0,0,1-10.36,4.34A50.93,50.93,0,0,1,621.72,414,30.81,30.81,0,0,1,606,409.91Z" transform="translate(-462.36 -287.06)"/><path id="Path_4" data-name="Path 4" class="cls-1" d="M696.47,410.33q-3.84-2.74-8-9.56L680,386.57h-3.4v25.69H665.42V367.17q0-4.34-1.18-6.41t-4.77-2.08h-.84v-2.55H682.1a37.78,37.78,0,0,1,15.9,3.22q7.05,3.24,7.06,12.42,0,10.62-13.78,14.12l8.94,14.88q5,8.43,10.53,9.36v2.13a9.82,9.82,0,0,1-2.46.59,23.09,23.09,0,0,1-3.32.26A14.07,14.07,0,0,1,696.47,410.33Zm-14.8-27.17a12,12,0,0,0,8.12-2.85q3.36-2.83,3.36-9t-3.31-8.93a11.47,11.47,0,0,0-7.73-2.89,17.69,17.69,0,0,0-3.84.33l-1.7.26v23Z" transform="translate(-462.36 -287.06)"/><path id="Path_5" data-name="Path 5" class="cls-1" d="M760.24,410.33c-2.89-1.5-5.23-4.43-7-8.8l-2-4.75H728.62l-7,15.48h-4.41l25.07-56.13h3.84l19.05,45.4q3.22,7.92,8.83,8.52v2.12a15.59,15.59,0,0,1-4.08.42A20.68,20.68,0,0,1,760.24,410.33Zm-29.85-17.39h19.23l-9.36-22.18Z" transform="translate(-462.36 -287.06)"/><path id="Path_6" data-name="Path 6" class="cls-1" d="M790.94,370.15v42.1h-4.25V366.34a8.38,8.38,0,0,0-1.74-5.63c-1.16-1.36-3.13-2-5.9-2h-.44v-2.55h6a20.79,20.79,0,0,1,7.77,1.23,12.12,12.12,0,0,1,5.06,3.86l29.26,34V356.13h4.25V412.5H827Z" transform="translate(-462.36 -287.06)"/><path id="Path_7" data-name="Path 7" class="cls-1" d="M852.08,367.17q0-4.34-1.18-6.41t-4.77-2.08h-.84v-2.55h23.13q17.16,0,26.15,7.27t9,20.45a28.74,28.74,0,0,1-3.79,14.83,25.37,25.37,0,0,1-11.23,10q-7.42,3.56-17.89,3.57H852.08Zm18.29,41.67a19,19,0,0,0,10.6-3,19.73,19.73,0,0,0,7.23-8.58,31.06,31.06,0,0,0,2.58-13.1,30.63,30.63,0,0,0-2.58-13,20.33,20.33,0,0,0-7.28-8.62,19.12,19.12,0,0,0-10.72-3.07h-.68a26.19,26.19,0,0,0-4.51.33l-1.86.26v48.14l1.86.34a35.78,35.78,0,0,0,4.51.25Z" transform="translate(-462.36 -287.06)"/></g><g id="Group_2" data-name="Group 2"><path id="Path_8" data-name="Path 8" class="cls-1" d="M530.47,451.21h7.77c7.36,0,11.39,2.67,11.39,7.56,0,3.77-2.59,6.24-7.22,6.79v.09c4.25.3,6.37,1.92,6.37,6.5v2.43a7.47,7.47,0,0,0,1.29,4.67h-4a6.87,6.87,0,0,1-1.15-4.43V472.5c0-4.05-1.48-5.45-5.47-5.45H534.3v12.2h-3.83Zm3.83,3v10h3.81c5.06,0,7.53-1.6,7.53-5s-2.47-5-7.53-5Z" transform="translate(-462.36 -287.06)"/><path id="Path_9" data-name="Path 9" class="cls-1" d="M560.36,451.21h16.73v3h-12.9v9.1H576v3H564.19v9.9h12.9v3H560.36Z" transform="translate(-462.36 -287.06)"/><path id="Path_10" data-name="Path 10" class="cls-1" d="M584.9,475.3l2.54-2.51c1.66,2.56,4.89,3.66,7.82,3.66,3.92,0,5.91-2,5.91-4.69,0-2.2-1.35-3.86-4.51-4.58l-3.48-.81c-4.6-1.05-6.79-3.7-6.79-7.18,0-4.71,4-8.41,9.68-8.41,3.61,0,7.4,1.49,9,3.91l-2.54,2.5c-1.4-2.25-4.16-3.18-6.64-3.18-3.7,0-5.65,2.08-5.65,4.72,0,2.45,1.71,3.94,4.38,4.55l3.53.75c4.29.94,6.88,3.54,6.88,7.27,0,4.64-4,8.37-10.06,8.37C590.93,479.67,586.68,478,584.9,475.3Z" transform="translate(-462.36 -287.06)"/><path id="Path_11" data-name="Path 11" class="cls-1" d="M613.68,465.23c0-7.82,5.56-14.45,12.88-14.45s12.87,6.63,12.87,14.45-5.58,14.44-12.87,14.44S613.68,473.05,613.68,465.23Zm21.75,0c0-6.59-3.64-11.17-8.87-11.17s-8.89,4.58-8.89,11.17,3.65,11.17,8.89,11.17S635.43,471.82,635.43,465.23Z" transform="translate(-462.36 -287.06)"/><path id="Path_12" data-name="Path 12" class="cls-1" d="M649.65,451.21h7.78c7.34,0,11.39,2.67,11.39,7.56,0,3.77-2.6,6.24-7.23,6.79v.09c4.25.3,6.38,1.92,6.38,6.5v2.43a7.47,7.47,0,0,0,1.27,4.67h-4a6.88,6.88,0,0,1-1.16-4.43V472.5c0-4.05-1.49-5.45-5.48-5.45h-5.14v12.2h-3.82Zm3.82,3v10h3.83c5.06,0,7.52-1.6,7.52-5s-2.46-5-7.52-5Z" transform="translate(-462.36 -287.06)"/><path id="Path_13" data-name="Path 13" class="cls-1" d="M685,454.22h-8.76v-3h21.35v3h-8.76v25H685Z" transform="translate(-462.36 -287.06)"/><path id="Path_14" data-name="Path 14" class="cls-1" d="M737,475.26a11.54,11.54,0,0,1-9.35,4.41c-5.74,0-9.6-3.44-9.6-7.93,0-3.66,2.59-6.55,6.88-8.08a8.35,8.35,0,0,1-2.89-6c0-3.82,3.15-6.88,7.77-6.88s7.78,3.06,7.78,7.27c0,3.74-2.5,6.15-6.07,7.64l5.06,4.84c2.85-6,4.93-7.38,8.83-7.38a9.22,9.22,0,0,1,1.66.13l.51,3.22a13.93,13.93,0,0,0-1.45-.09c-3.05,0-5.13,1.1-7.51,6.09l6.29,6-2.46,2Zm-2-1.92-8.37-8c-3.11,1.23-4.8,3.52-4.8,6,0,3,2.63,5.36,6.53,5.36A7.89,7.89,0,0,0,735,473.34Zm-6.75-10.8,1.56,1.55c2.69-1.29,4.18-3.37,4.18-5.92,0-2.73-1.71-4.55-4.23-4.55a4,4,0,0,0-4.12,3.75c0,.14,0,.28,0,.41,0,2.09,1.15,3.37,2.6,4.76Z" transform="translate(-462.36 -287.06)"/><path id="Path_15" data-name="Path 15" class="cls-1" d="M766.7,475.3l2.56-2.51c1.65,2.56,4.89,3.66,7.82,3.66,3.9,0,5.9-2,5.9-4.69,0-2.2-1.36-3.86-4.49-4.58l-3.49-.81c-4.6-1.05-6.8-3.7-6.8-7.18,0-4.71,4-8.41,9.68-8.41,3.61,0,7.4,1.49,9,3.91l-2.56,2.5c-1.4-2.25-4.16-3.18-6.62-3.18-3.7,0-5.65,2.08-5.65,4.72,0,2.45,1.69,3.94,4.37,4.55L780,464c4.27.94,6.88,3.54,6.88,7.27,0,4.64-4,8.37-10.08,8.37C772.75,479.67,768.5,478,766.7,475.3Z" transform="translate(-462.36 -287.06)"/><path id="Path_16" data-name="Path 16" class="cls-1" d="M796.94,451.21h6.84c7.23,0,11.56,3.14,11.56,8.33s-4.33,8.32-11.56,8.32h-3v11.39h-3.82Zm3.82,3v10.71H804c5,0,7.39-1.69,7.39-5.34s-2.42-5.37-7.39-5.37Z" transform="translate(-462.36 -287.06)"/><path id="Path_17" data-name="Path 17" class="cls-1" d="M829.79,451.21h3.83l10.41,28h-4.12l-2.34-6.55H825.63l-2.3,6.55h-3.94Zm-3.26,18.6h10.15l-5-14.28Z" transform="translate(-462.36 -287.06)"/></g><g id="Group_3" data-name="Group 3"><path id="Path_18" data-name="Path 18" class="cls-1" d="M626.11,289.84h-4.38a7.32,7.32,0,0,0-5.26,1.74c-1.22,1.14-1.82,3-1.82,5.66H612.8V292q0-4.93,5.23-4.94h29v2.77H634.12v37.9h-8Z" transform="translate(-462.36 -287.06)"/><path id="Path_19" data-name="Path 19" class="cls-1" d="M658,295.09a9.65,9.65,0,0,0-.86-4.65c-.57-1-1.72-1.52-3.44-1.52h-.62v-1.85h7.4a6.31,6.31,0,0,1,3.38.75,4.07,4.07,0,0,1,1.66,2.43,17.9,17.9,0,0,1,.49,4.84v10.16h16.64V287.07h8v32.67a9.68,9.68,0,0,0,.87,4.65c.58,1,1.72,1.5,3.46,1.5h.6v1.85h-7.38a6.56,6.56,0,0,1-3.4-.71,3.93,3.93,0,0,1-1.66-2.4,18.35,18.35,0,0,1-.5-4.9V308H666v19.71h-8Z" transform="translate(-462.36 -287.06)"/><path id="Path_20" data-name="Path 20" class="cls-1" d="M707.31,295.09a9.66,9.66,0,0,0-.87-4.65c-.56-1-1.72-1.52-3.44-1.52h-.62v-1.85h27.17c3.49,0,5.23,1.65,5.24,4.94v5.23h-1.85c0-2.54-.64-4.42-1.94-5.6a8.26,8.26,0,0,0-5.77-1.8h-9.91v15.41h16V308h-16V325h10.53a10.2,10.2,0,0,0,5.86-1.58,11.35,11.35,0,0,0,3.89-5.45l1.66.62-1.79,4.87a8.34,8.34,0,0,1-1.91,3.26,4.85,4.85,0,0,1-3.46,1.05H707.31Z" 
transform="translate(-462.36 -287.06)"/>
</g>
</g>
</svg>